<?xml version="1.0" encoding="UTF-8" standalone="no"?>
<!DOCTYPE svg PUBLIC "-//W3C//DTD SVG 1.1//EN"
 "http://www.w3.org/Graphics/SVG/1.1/DTD/svg11.dtd">
<!-- Generated by graphviz version 2.43.0 (0)
 -->
<!-- Title: finite_graph Pages: 1 -->
<svg width="636pt" height="710pt"
 viewBox="0.00 0.00 636.00 710.00" xmlns="http://www.w3.org/2000/svg" xmlns:xlink="http://www.w3.org/1999/xlink">
<g id="graph0" class="graph" transform="scale(1 1) rotate(0) translate(4 706)">
<title>finite_graph</title>
<polygon fill="white" stroke="transparent" points="-4,4 -4,-706 632,-706 632,4 -4,4"/>
<!-- 1 -->
<g id="node1" class="node">
<title>1</title>
<ellipse fill="none" stroke="black" cx="18" cy="-426" rx="18" ry="18"/>
<text text-anchor="middle" x="18" y="-422.3" font-family="Helvetica,Arial,sans-serif" font-size="14.00">1</text>
</g>
<!-- 3 -->
<g id="node2" class="node">
<title>3</title>
<ellipse fill="none" stroke="black" cx="106" cy="-307" rx="18" ry="18"/>
<text text-anchor="middle" x="106" y="-303.3" font-family="Helvetica,Arial,sans-serif" font-size="14.00">3</text>
</g>
<!-- 1&#45;&gt;3 -->
<g id="edge1" class="edge">
<title>1&#45;&gt;3</title>
<path fill="none" stroke="black" d="M24.84,-409.32C30.75,-393.83 40.87,-370.56 54,-353 62.26,-341.96 73.46,-331.51 83.26,-323.36"/>
<polygon fill="black" stroke="black" points="85.45,-326.09 91.07,-317.11 81.08,-320.63 85.45,-326.09"/>
<text text-anchor="middle" x="62" y="-356.8" font-family="Helvetica,Arial,sans-serif" font-size="14.00">0</text>
</g>
<!-- 2 -->
<g id="node3" class="node">
<title>2</title>
<ellipse fill="none" stroke="black" cx="530" cy="-479" rx="18" ry="18"/>
<text text-anchor="middle" x="530" y="-475.3" font-family="Helvetica,Arial,sans-serif" font-size="14.00">2</text>
</g>
<!-- 1&#45;&gt;2 -->
<g id="edge2" class="edge">
<title>1&#45;&gt;2</title>
<path fill="none" stroke="black" d="M22.06,-443.84C31.49,-495.9 62.08,-644 105,-644 105,-644 105,-644 451,-644 510.82,-644 524.83,-554.26 528.06,-507.14"/>
<polygon fill="black" stroke="black" points="531.57,-507.15 528.64,-496.97 524.58,-506.76 531.57,-507.15"/>
<text text-anchor="middle" x="282" y="-647.8" font-family="Helvetica,Arial,sans-serif" font-size="14.00">0</text>
</g>
<!-- 0 -->
<g id="node4" class="node">
<title>0</title>
<ellipse fill="none" stroke="black" cx="610" cy="-258" rx="18" ry="18"/>
<text text-anchor="middle" x="610" y="-254.3" font-family="Helvetica,Arial,sans-serif" font-size="14.00">0</text>
</g>
<!-- 1&#45;&gt;0 -->
<g id="edge3" class="edge">
<title>1&#45;&gt;0</title>
<path fill="none" stroke="black" d="M20.96,-443.94C27.91,-502.91 53.71,-687 105,-687 105,-687 105,-687 531,-687 571.91,-687 599.35,-381.11 606.89,-285.92"/>
<polygon fill="black" stroke="black" points="610.39,-286.13 607.68,-275.89 603.41,-285.58 610.39,-286.13"/>
<text text-anchor="middle" x="326" y="-690.8" font-family="Helvetica,Arial,sans-serif" font-size="14.00">28</text>
</g>
<!-- 4 -->
<g id="node5" class="node">
<title>4</title>
<ellipse fill="none" stroke="black" cx="450" cy="-361" rx="18" ry="18"/>
<text text-anchor="middle" x="450" y="-357.3" font-family="Helvetica,Arial,sans-serif" font-size="14.00">4</text>
</g>
<!-- 1&#45;&gt;4 -->
<g id="edge4" class="edge">
<title>1&#45;&gt;4</title>
<path fill="none" stroke="black" d="M31.9,-437.82C47.83,-451.16 76.35,-471 105,-471 105,-471 105,-471 371,-471 411.35,-471 432.72,-421.14 442.38,-388.56"/>
<polygon fill="black" stroke="black" points="445.82,-389.24 445.12,-378.67 439.08,-387.38 445.82,-389.24"/>
<text text-anchor="middle" x="238" y="-474.8" font-family="Helvetica,Arial,sans-serif" font-size="14.00">3</text>
</g>
<!-- 3&#45;&gt;1 -->
<g id="edge16" class="edge">
<title>3&#45;&gt;1</title>
<path fill="none" stroke="black" d="M87.93,-306.16C76.99,-306.53 63.17,-308.85 54,-317 31.1,-337.36 23.09,-372.74 20.34,-397.65"/>
<polygon fill="black" stroke="black" points="16.82,-397.68 19.43,-407.94 23.8,-398.29 16.82,-397.68"/>
<text text-anchor="middle" x="62" y="-320.8" font-family="Helvetica,Arial,sans-serif" font-size="14.00">10</text>
</g>
<!-- 3&#45;&gt;2 -->
<g id="edge17" class="edge">
<title>3&#45;&gt;2</title>
<path fill="none" stroke="black" d="M108.4,-325.2C113.79,-388.91 135.84,-598 193,-598 193,-598 193,-598 451,-598 494.43,-598 515,-541.87 523.62,-506.71"/>
<polygon fill="black" stroke="black" points="527.12,-507.09 525.92,-496.56 520.3,-505.54 527.12,-507.09"/>
<text text-anchor="middle" x="326" y="-601.8" font-family="Helvetica,Arial,sans-serif" font-size="14.00">11</text>
</g>
<!-- 3&#45;&gt;4 -->
<g id="edge14" class="edge">
<title>3&#45;&gt;4</title>
<path fill="none" stroke="black" d="M110.83,-324.59C119.27,-358.15 142.87,-428 193,-428 193,-428 193,-428 371,-428 398.4,-428 420.98,-403.91 434.68,-384.62"/>
<polygon fill="black" stroke="black" points="437.66,-386.46 440.33,-376.2 431.85,-382.56 437.66,-386.46"/>
<text text-anchor="middle" x="282" y="-431.8" font-family="Helvetica,Arial,sans-serif" font-size="14.00">20</text>
</g>
<!-- 5 -->
<g id="node6" class="node">
<title>5</title>
<ellipse fill="none" stroke="black" cx="370" cy="-269" rx="18" ry="18"/>
<text text-anchor="middle" x="370" y="-265.3" font-family="Helvetica,Arial,sans-serif" font-size="14.00">5</text>
</g>
<!-- 3&#45;&gt;5 -->
<g id="edge19" class="edge">
<title>3&#45;&gt;5</title>
<path fill="none" stroke="black" d="M124.23,-305.79C162.35,-302.93 256.56,-294.74 334,-279 336.9,-278.41 339.92,-277.7 342.9,-276.94"/>
<polygon fill="black" stroke="black" points="344.04,-280.25 352.75,-274.21 342.18,-273.5 344.04,-280.25"/>
<text text-anchor="middle" x="238" y="-298.8" font-family="Helvetica,Arial,sans-serif" font-size="14.00">2</text>
</g>
<!-- 7 -->
<g id="node7" class="node">
<title>7</title>
<ellipse fill="none" stroke="black" cx="282" cy="-168" rx="18" ry="18"/>
<text text-anchor="middle" x="282" y="-164.3" font-family="Helvetica,Arial,sans-serif" font-size="14.00">7</text>
</g>
<!-- 3&#45;&gt;7 -->
<g id="edge15" class="edge">
<title>3&#45;&gt;7</title>
<path fill="none" stroke="black" d="M114.06,-290.75C120.1,-278.22 129.77,-261.05 142,-249 159.92,-231.36 221.4,-198.46 256.3,-180.49"/>
<polygon fill="black" stroke="black" points="258.07,-183.52 265.38,-175.85 254.88,-177.29 258.07,-183.52"/>
<text text-anchor="middle" x="194" y="-227.8" font-family="Helvetica,Arial,sans-serif" font-size="14.00">0</text>
</g>
<!-- 6 -->
<g id="node8" class="node">
<title>6</title>
<ellipse fill="none" stroke="black" cx="194" cy="-114" rx="18" ry="18"/>
<text text-anchor="middle" x="194" y="-110.3" font-family="Helvetica,Arial,sans-serif" font-size="14.00">6</text>
</g>
<!-- 3&#45;&gt;6 -->
<g id="edge18" class="edge">
<title>3&#45;&gt;6</title>
<path fill="none" stroke="black" d="M108.8,-289.04C112.93,-250.9 124.14,-163.35 142,-140 148.21,-131.88 157.66,-126.09 166.74,-122.07"/>
<polygon fill="black" stroke="black" points="168.22,-125.25 176.28,-118.37 165.69,-118.72 168.22,-125.25"/>
<text text-anchor="middle" x="150" y="-143.8" font-family="Helvetica,Arial,sans-serif" font-size="14.00">10</text>
</g>
<!-- 2&#45;&gt;1 -->
<g id="edge6" class="edge">
<title>2&#45;&gt;1</title>
<path fill="none" stroke="black" d="M521.46,-495.12C509.77,-517.43 485.03,-555 451,-555 105,-555 105,-555 105,-555 56.65,-555 33.81,-491.5 24.49,-453.6"/>
<polygon fill="black" stroke="black" points="27.86,-452.63 22.21,-443.67 21.03,-454.2 27.86,-452.63"/>
<text text-anchor="middle" x="282" y="-558.8" font-family="Helvetica,Arial,sans-serif" font-size="14.00">8</text>
</g>
<!-- 2&#45;&gt;3 -->
<g id="edge7" class="edge">
<title>2&#45;&gt;3</title>
<path fill="none" stroke="black" d="M514.4,-488.33C499.19,-497.13 474.36,-509 451,-509 193,-509 193,-509 193,-509 118.5,-509 107.63,-391.23 106.65,-335.54"/>
<polygon fill="black" stroke="black" points="110.15,-335.26 106.58,-325.28 103.15,-335.31 110.15,-335.26"/>
<text text-anchor="middle" x="326" y="-512.8" font-family="Helvetica,Arial,sans-serif" font-size="14.00">15</text>
</g>
<!-- 2&#45;&gt;0 -->
<g id="edge5" class="edge">
<title>2&#45;&gt;0</title>
<path fill="none" stroke="black" d="M536.99,-462.03C550.52,-423.69 583.53,-330.17 599.72,-284.28"/>
<polygon fill="black" stroke="black" points="603.07,-285.32 603.1,-274.73 596.47,-282.99 603.07,-285.32"/>
<text text-anchor="middle" x="570" y="-378.8" font-family="Helvetica,Arial,sans-serif" font-size="14.00">1</text>
</g>
<!-- 2&#45;&gt;4 -->
<g id="edge8" class="edge">
<title>2&#45;&gt;4</title>
<path fill="none" stroke="black" d="M519.2,-464.18C505.94,-444.11 482.14,-408.1 466.45,-384.38"/>
<polygon fill="black" stroke="black" points="469.31,-382.36 460.88,-375.94 463.47,-386.22 469.31,-382.36"/>
<text text-anchor="middle" x="490" y="-426.8" font-family="Helvetica,Arial,sans-serif" font-size="14.00">2</text>
</g>
<!-- 0&#45;&gt;1 -->
<g id="edge24" class="edge">
<title>0&#45;&gt;1</title>
<path fill="none" stroke="black" d="M609.34,-239.88C609.17,-193.85 601.82,-76 531,-76 325,-76 325,-76 325,-76 258.34,-76 180.78,-62.82 142,-100 54.88,-183.53 28.85,-334.88 21.6,-397.6"/>
<polygon fill="black" stroke="black" points="18.08,-397.58 20.49,-407.9 25.04,-398.33 18.08,-397.58"/>
<text text-anchor="middle" x="326" y="-79.8" font-family="Helvetica,Arial,sans-serif" font-size="14.00">10</text>
</g>
<!-- 0&#45;&gt;2 -->
<g id="edge23" class="edge">
<title>0&#45;&gt;2</title>
<path fill="none" stroke="black" d="M600.01,-273.01C590.48,-289.46 575.51,-316.87 566,-342 552.06,-378.85 541.84,-423.34 536.16,-451.41"/>
<polygon fill="black" stroke="black" points="532.71,-450.83 534.2,-461.31 539.57,-452.18 532.71,-450.83"/>
<text text-anchor="middle" x="570" y="-345.8" font-family="Helvetica,Arial,sans-serif" font-size="14.00">0</text>
</g>
<!-- 0&#45;&gt;6 -->
<g id="edge25" class="edge">
<title>0&#45;&gt;6</title>
<path fill="none" stroke="black" d="M608.32,-239.76C606.18,-191.02 598.24,-59.05 574,-24 561.55,-6 552.89,0 531,0 281,0 281,0 281,0 255.95,0 247.09,-5.69 230,-24 213.81,-41.35 204.82,-67.03 200.02,-86.52"/>
<polygon fill="black" stroke="black" points="196.59,-85.83 197.82,-96.35 203.42,-87.36 196.59,-85.83"/>
<text text-anchor="middle" x="410" y="-3.8" font-family="Helvetica,Arial,sans-serif" font-size="14.00">0</text>
</g>
<!-- 4&#45;&gt;1 -->
<g id="edge12" class="edge">
<title>4&#45;&gt;1</title>
<path fill="none" stroke="black" d="M433.2,-367.88C417.68,-374 393.16,-382 371,-382 105,-382 105,-382 105,-382 80.72,-382 56.4,-396.07 39.85,-408.3"/>
<polygon fill="black" stroke="black" points="37.69,-405.54 31.94,-414.44 41.99,-411.07 37.69,-405.54"/>
<text text-anchor="middle" x="238" y="-385.8" font-family="Helvetica,Arial,sans-serif" font-size="14.00">10</text>
</g>
<!-- 4&#45;&gt;3 -->
<g id="edge9" class="edge">
<title>4&#45;&gt;3</title>
<path fill="none" stroke="black" d="M433.23,-353.8C417.73,-347.38 393.23,-339 371,-339 193,-339 193,-339 193,-339 170.89,-339 147.48,-329.6 130.68,-320.99"/>
<polygon fill="black" stroke="black" points="132.07,-317.76 121.61,-316.08 128.74,-323.92 132.07,-317.76"/>
<text text-anchor="middle" x="282" y="-342.8" font-family="Helvetica,Arial,sans-serif" font-size="14.00">0</text>
</g>
<!-- 4&#45;&gt;2 -->
<g id="edge13" class="edge">
<title>4&#45;&gt;2</title>
<path fill="none" stroke="black" d="M455.95,-378.3C461.44,-395.55 471.48,-422.25 486,-442 491.7,-449.76 499.32,-456.98 506.56,-462.95"/>
<polygon fill="black" stroke="black" points="504.71,-465.95 514.74,-469.35 509.01,-460.43 504.71,-465.95"/>
<text text-anchor="middle" x="490" y="-453.8" font-family="Helvetica,Arial,sans-serif" font-size="14.00">0</text>
</g>
<!-- 4&#45;&gt;5 -->
<g id="edge10" class="edge">
<title>4&#45;&gt;5</title>
<path fill="none" stroke="black" d="M447.46,-342.9C444.63,-322.07 436.63,-288.6 414,-272 409.4,-268.62 403.72,-266.99 398.02,-266.37"/>
<polygon fill="black" stroke="black" points="398.03,-262.87 387.96,-266.17 397.89,-269.87 398.03,-262.87"/>
<text text-anchor="middle" x="410" y="-275.8" font-family="Helvetica,Arial,sans-serif" font-size="14.00">0</text>
</g>
<!-- 4&#45;&gt;7 -->
<g id="edge11" class="edge">
<title>4&#45;&gt;7</title>
<path fill="none" stroke="black" d="M449.74,-342.95C450.45,-305.96 448,-219.92 414,-159 399.68,-133.34 380.7,-129.67 352,-136 336.18,-139.49 319.67,-146.99 306.77,-153.85"/>
<polygon fill="black" stroke="black" points="304.72,-150.98 297.68,-158.89 308.12,-157.1 304.72,-150.98"/>
<text text-anchor="middle" x="370" y="-139.8" font-family="Helvetica,Arial,sans-serif" font-size="14.00">0</text>
</g>
<!-- 5&#45;&gt;3 -->
<g id="edge22" class="edge">
<title>5&#45;&gt;3</title>
<path fill="none" stroke="black" d="M351.77,-268.38C325.38,-267.7 273.46,-267.47 230,-274 195.95,-279.11 157.8,-290.22 133.15,-298.13"/>
<polygon fill="black" stroke="black" points="131.87,-294.87 123.46,-301.3 134.05,-301.52 131.87,-294.87"/>
<text text-anchor="middle" x="238" y="-277.8" font-family="Helvetica,Arial,sans-serif" font-size="14.00">6</text>
</g>
<!-- 5&#45;&gt;4 -->
<g id="edge20" class="edge">
<title>5&#45;&gt;4</title>
<path fill="none" stroke="black" d="M384.1,-280.19C393,-288.09 404.77,-299.16 414,-310 421.21,-318.46 428.31,-328.42 434.21,-337.28"/>
<polygon fill="black" stroke="black" points="431.28,-339.2 439.67,-345.67 437.15,-335.38 431.28,-339.2"/>
<text text-anchor="middle" x="410" y="-313.8" font-family="Helvetica,Arial,sans-serif" font-size="14.00">1</text>
</g>
<!-- 5&#45;&gt;7 -->
<g id="edge21" class="edge">
<title>5&#45;&gt;7</title>
<path fill="none" stroke="black" d="M363.18,-252.15C357.47,-237.41 347.64,-216.06 334,-201 326.64,-192.88 316.86,-185.91 307.83,-180.5"/>
<polygon fill="black" stroke="black" points="309.25,-177.29 298.82,-175.45 305.83,-183.39 309.25,-177.29"/>
<text text-anchor="middle" x="326" y="-204.8" font-family="Helvetica,Arial,sans-serif" font-size="14.00">0</text>
</g>
<!-- 7&#45;&gt;3 -->
<g id="edge27" class="edge">
<title>7&#45;&gt;3</title>
<path fill="none" stroke="black" d="M263.99,-167.12C242.01,-166.78 203.31,-168.98 176,-186 142.18,-207.07 123.31,-251.14 114.16,-279.88"/>
<polygon fill="black" stroke="black" points="110.73,-279.12 111.22,-289.7 117.44,-281.12 110.73,-279.12"/>
<text text-anchor="middle" x="194" y="-189.8" font-family="Helvetica,Arial,sans-serif" font-size="14.00">1</text>
</g>
<!-- 7&#45;&gt;4 -->
<g id="edge28" class="edge">
<title>7&#45;&gt;4</title>
<path fill="none" stroke="black" d="M299.69,-171.58C309.96,-174.18 323.18,-178.25 334,-184 361.09,-198.39 367.11,-204.54 388,-227 416.53,-257.67 433.53,-303.99 442.07,-333.35"/>
<polygon fill="black" stroke="black" points="438.79,-334.63 444.84,-343.34 445.54,-332.76 438.79,-334.63"/>
<text text-anchor="middle" x="370" y="-230.8" font-family="Helvetica,Arial,sans-serif" font-size="14.00">7</text>
</g>
<!-- 7&#45;&gt;5 -->
<g id="edge26" class="edge">
<title>7&#45;&gt;5</title>
<path fill="none" stroke="black" d="M292.92,-182.67C299.67,-192.38 308.98,-205.25 318,-216 327.71,-227.58 339.35,-239.78 349.05,-249.55"/>
<polygon fill="black" stroke="black" points="346.79,-252.24 356.34,-256.81 351.72,-247.28 346.79,-252.24"/>
<text text-anchor="middle" x="326" y="-236.8" font-family="Helvetica,Arial,sans-serif" font-size="14.00">7</text>
</g>
<!-- 7&#45;&gt;6 -->
<g id="edge29" class="edge">
<title>7&#45;&gt;6</title>
<path fill="none" stroke="black" d="M277.09,-150.43C272.54,-134.66 263.34,-112.43 246,-102 237.96,-97.16 228.12,-98.17 219.23,-101.1"/>
<polygon fill="black" stroke="black" points="217.66,-97.97 209.75,-105.02 220.33,-104.44 217.66,-97.97"/>
<text text-anchor="middle" x="238" y="-105.8" font-family="Helvetica,Arial,sans-serif" font-size="14.00">16</text>
</g>
<!-- 6&#45;&gt;3 -->
<g id="edge30" class="edge">
<title>6&#45;&gt;3</title>
<path fill="none" stroke="black" d="M176.95,-106.92C165.9,-103.24 151.54,-101 142,-109 116.52,-130.37 109.58,-229.6 107.7,-278.96"/>
<polygon fill="black" stroke="black" points="104.2,-278.86 107.36,-288.97 111.2,-279.09 104.2,-278.86"/>
<text text-anchor="middle" x="150" y="-112.8" font-family="Helvetica,Arial,sans-serif" font-size="14.00">14</text>
</g>
<!-- 6&#45;&gt;0 -->
<g id="edge31" class="edge">
<title>6&#45;&gt;0</title>
<path fill="none" stroke="black" d="M203.53,-98.25C216.88,-75.99 244.94,-38 281,-38 281,-38 281,-38 531,-38 552.89,-38 561.3,-44.18 574,-62 592.89,-88.51 602.93,-182.09 606.92,-229.71"/>
<polygon fill="black" stroke="black" points="603.45,-230.26 607.74,-239.95 610.43,-229.7 603.45,-230.26"/>
<text text-anchor="middle" x="410" y="-41.8" font-family="Helvetica,Arial,sans-serif" font-size="14.00">2</text>
</g>
<!-- 6&#45;&gt;7 -->
<g id="edge32" class="edge">
<title>6&#45;&gt;7</title>
<path fill="none" stroke="black" d="M210.63,-120.95C220.96,-125.79 234.64,-132.67 246,-140 250.62,-142.98 255.36,-146.45 259.8,-149.91"/>
<polygon fill="black" stroke="black" points="257.87,-152.86 267.85,-156.43 262.28,-147.42 257.87,-152.86"/>
<text text-anchor="middle" x="238" y="-143.8" font-family="Helvetica,Arial,sans-serif" font-size="14.00">11</text>
</g>
</g>
</svg>
